<svg width="160" height="160" viewBox="0 0 160 160" fill="none" xmlns="http://www.w3.org/2000/svg" role="img" aria-labelledby="title desc">
  <title id="title">Omah Sabun</title>
  <desc id="desc">Logo modern Omah Sabun berbentuk tetes bersih dan rumah.</desc>
  <rect width="160" height="160" rx="40" fill="#E9F7F4"/>
  <path d="M80 18C104 44.5 124 69.2 124 96.4C124 121.5 104.3 140 80 140C55.7 140 36 121.5 36 96.4C36 69.2 56 44.5 80 18Z" fill="#0F766E"/>
  <path d="M52 93.5L80 67L108 93.5V121C108 124.3 105.3 127 102 127H58C54.7 127 52 124.3 52 121V93.5Z" fill="white"/>
  <path d="M64 94L80 79L96 94" stroke="#D7A448" stroke-width="8" stroke-linecap="round" stroke-linejoin="round"/>
  <rect x="70" y="102" width="20" height="25" rx="5" fill="#0F766E"/>
  <circle cx="111" cy="45" r="12" fill="white" fill-opacity="0.9"/>
  <circle cx="44" cy="55" r="7" fill="#D7A448"/>
</svg>
